HIERARCHY
ROOT Hips
{
	OFFSET 0.000000 0.000000 0.000000 
	CHANNELS 6 Xposition Yposition Zposition Yrotation Xrotation Zrotation
	JOINT Spine
	{
		OFFSET 0.000000 0.072080 0.012321 
		CHANNELS 3 Xrotation Yrotation Zrotation
		JOINT Spine1
		{
			OFFSET 0.000000 0.126984 -0.001294 
			CHANNELS 3 Xrotation Yrotation Zrotation
			JOINT Spine2
			{
				OFFSET 0.000000 0.106559 -0.010096 
				CHANNELS 3 Xrotation Yrotation Zrotation
				JOINT Neck
				{
					OFFSET 0.000000 0.108417 -0.034017 
					CHANNELS 3 Xrotation Yrotation Zrotation
					JOINT Neck1
					{
						OFFSET 0.000000 0.033906 0.007241 
						CHANNELS 3 Xrotation Yrotation Zrotation
						JOINT Head
						{
							OFFSET 0.000000 0.031458 0.006707 
							CHANNELS 3 Xrotation Yrotation Zrotation
							End Site
							{
								OFFSET 0.000000 0.179920 0.000962 
							}
						}
					}
				}
				JOINT LeftShoulder
				{
					OFFSET 0.048002 0.079586 -0.029634 
					CHANNELS 3 Zrotation Xrotation Yrotation
					JOINT LeftArm
					{
						OFFSET 0.096243 -0.008695 -0.014012 
						CHANNELS 3 Zrotation Xrotation Yrotation
						JOINT LeftForeArm
						{
							OFFSET 0.216305 0.000000 0.000000 
							CHANNELS 3 Xrotation Zrotation Yrotation
							JOINT LeftHand
							{
								OFFSET 0.217764 0.000000 0.000000 
								CHANNELS 3 Zrotation Yrotation Xrotation
								JOINT LeftHandThumb1
								{
									OFFSET 0.018582 -0.007835 0.020476 
									CHANNELS 3 Zrotation Xrotation Yrotation
									JOINT LeftHandThumb2
									{
										OFFSET 0.026269 -0.007835 0.022186 
										CHANNELS 3 Zrotation Xrotation Yrotation
										JOINT LeftHandThumb3
										{
											OFFSET 0.035170 -0.010504 0.017018 
											CHANNELS 3 Zrotation Xrotation Yrotation
											End Site
											{
												OFFSET 0.020312 -0.007813 0.007813 
											}
										}
									}
								}
								JOINT LeftHandMiddle1
								{
									OFFSET 0.081749 0.004803 0.003358 
									CHANNELS 3 Zrotation Xrotation Yrotation
									JOINT LeftHandMiddle2
									{
										OFFSET 0.045251 0.000000 0.000000 
										CHANNELS 3 Zrotation Xrotation Yrotation
										JOINT LeftHandMiddle3
										{
											OFFSET 0.029009 0.000000 0.000000 
											CHANNELS 3 Zrotation Xrotation Yrotation
											End Site
											{
												OFFSET 0.017969 0.000000 0.000000 
											}
										}
									}
								}
								JOINT LeftHandIndex1
								{
									OFFSET 0.081207 0.004803 0.021137 
									CHANNELS 3 Zrotation Xrotation Yrotation
									JOINT LeftHandIndex2
									{
										OFFSET 0.043354 0.000000 0.000000 
										CHANNELS 3 Zrotation Xrotation Yrotation
										JOINT LeftHandIndex3
										{
											OFFSET 0.026493 0.000000 0.000000 
											CHANNELS 3 Zrotation Xrotation Yrotation
											End Site
											{
												OFFSET 0.019531 0.000000 0.000000 
											}
										}
									}
								}
								JOINT LeftHandRing1
								{
									OFFSET 0.080666 0.002509 -0.014652 
									CHANNELS 3 Zrotation Xrotation Yrotation
									JOINT LeftHandRing2
									{
										OFFSET 0.042541 0.000000 0.000000 
										CHANNELS 3 Zrotation Xrotation Yrotation
										JOINT LeftHandRing3
										{
											OFFSET 0.029009 0.000000 0.000000 
											CHANNELS 3 Zrotation Xrotation Yrotation
											End Site
											{
												OFFSET 0.015625 0.000000 0.000000 
											}
										}
									}
								}
								JOINT LeftHandPinky1
								{
									OFFSET 0.078227 -0.000612 -0.030993 
									CHANNELS 3 Zrotation Xrotation Yrotation
									JOINT LeftHandPinky2
									{
										OFFSET 0.028721 0.000000 0.000000 
										CHANNELS 3 Zrotation Xrotation Yrotation
										JOINT LeftHandPinky3
										{
											OFFSET 0.021963 0.000000 0.000000 
											CHANNELS 3 Zrotation Xrotation Yrotation
											End Site
											{
												OFFSET 0.022656 0.000000 0.000000 
											}
										}
									}
								}
							}
						}
					}
				}
				JOINT RightShoulder
				{
					OFFSET -0.047970 0.079586 -0.029634 
					CHANNELS 3 Zrotation Xrotation Yrotation
					JOINT RightArm
					{
						OFFSET -0.096274 -0.008695 -0.014012 
						CHANNELS 3 Zrotation Xrotation Yrotation
						JOINT RightForeArm
						{
							OFFSET -0.216305 0.000000 0.000000 
							CHANNELS 3 Xrotation Zrotation Yrotation
							JOINT RightHand
							{
								OFFSET -0.217764 0.000000 0.000000 
								CHANNELS 3 Zrotation Yrotation Xrotation
								JOINT RightHandThumb1
								{
									OFFSET -0.019670 -0.007318 0.019638 
									CHANNELS 3 Zrotation Xrotation Yrotation
									JOINT RightHandThumb2
									{
										OFFSET -0.025498 -0.008492 0.023179 
										CHANNELS 3 Zrotation Xrotation Yrotation
										JOINT RightHandThumb3
										{
											OFFSET -0.034504 -0.010705 0.016680 
											CHANNELS 3 Zrotation Xrotation Yrotation
											End Site
											{
												OFFSET -0.020312 -0.007813 0.007813 
											}
										}
									}
								}
								JOINT RightHandIndex1
								{
									OFFSET -0.081770 0.003825 0.021187 
									CHANNELS 3 Zrotation Xrotation Yrotation
									JOINT RightHandIndex2
									{
										OFFSET -0.042006 0.000000 0.000000 
										CHANNELS 3 Zrotation Xrotation Yrotation
										JOINT RightHandIndex3
										{
											OFFSET -0.026449 0.000000 0.000000 
											CHANNELS 3 Zrotation Xrotation Yrotation
											End Site
											{
												OFFSET -0.020312 0.000000 0.000000 
											}
										}
									}
								}
								JOINT RightHandMiddle1
								{
									OFFSET -0.084059 0.003825 0.003342 
									CHANNELS 3 Zrotation Xrotation Yrotation
									JOINT RightHandMiddle2
									{
										OFFSET -0.043881 0.000000 0.000000 
										CHANNELS 3 Zrotation Xrotation Yrotation
										JOINT RightHandMiddle3
										{
											OFFSET -0.029191 0.000000 0.000000 
											CHANNELS 3 Zrotation Xrotation Yrotation
											End Site
											{
												OFFSET -0.017969 0.000000 0.000000 
											}
										}
									}
								}
								JOINT RightHandRing1
								{
									OFFSET -0.081798 0.003030 -0.015127 
									CHANNELS 3 Zrotation Xrotation Yrotation
									JOINT RightHandRing2
									{
										OFFSET -0.042198 0.000000 0.000000 
										CHANNELS 3 Zrotation Xrotation Yrotation
										JOINT RightHandRing3
										{
											OFFSET -0.026497 0.000000 0.000000 
											CHANNELS 3 Zrotation Xrotation Yrotation
											End Site
											{
												OFFSET -0.017188 0.000000 0.000000 
											}
										}
									}
								}
								JOINT RightHandPinky1
								{
									OFFSET -0.077902 -0.000930 -0.030891 
									CHANNELS 3 Zrotation Xrotation Yrotation
									JOINT RightHandPinky2
									{
										OFFSET -0.028538 0.000000 0.000000 
										CHANNELS 3 Zrotation Xrotation Yrotation
										JOINT RightHandPinky3
										{
											OFFSET -0.021734 0.000000 0.000000 
											CHANNELS 3 Zrotation Xrotation Yrotation
											End Site
											{
												OFFSET -0.022656 0.000000 0.000000 
											}
										}
									}
								}
							}
						}
					}
				}
			}
		}
	}
	JOINT LeftUpLeg
	{
		OFFSET 0.075264 -0.025573 0.000000 
		CHANNELS 3 Xrotation Yrotation Zrotation
		JOINT LeftLeg
		{
			OFFSET 0.000000 -0.326016 -0.013516 
			CHANNELS 3 Xrotation Yrotation Zrotation
			JOINT LeftFoot
			{
				OFFSET 0.000098 -0.306172 -0.006623 
				CHANNELS 3 Xrotation Yrotation Zrotation
				JOINT LeftToeBase
				{
					OFFSET -0.001432 -0.095259 0.064705 
					CHANNELS 3 Xrotation Yrotation Zrotation
					End Site
					{
						OFFSET 0.000000 0.000000 0.079438 
					}
				}
			}
		}
	}
	JOINT RightUpLeg
	{
		OFFSET -0.075264 -0.025573 0.000000 
		CHANNELS 3 Xrotation Yrotation Zrotation
		JOINT RightLeg
		{
			OFFSET 0.000000 -0.326016 -0.013516 
			CHANNELS 3 Xrotation Yrotation Zrotation
			JOINT RightFoot
			{
				OFFSET 0.000098 -0.306172 -0.006623 
				CHANNELS 3 Xrotation Yrotation Zrotation
				JOINT RightToeBase
				{
					OFFSET -0.001432 -0.095259 0.064705 
					CHANNELS 3 Xrotation Yrotation Zrotation
					End Site
					{
						OFFSET 0.000025 0.000000 0.079438 
					}
				}
			}
		}
	}
}
MOTION
Frames: 4
Frame Time: 0.033333
0.004825 0.632848 -0.001986 -2.431100 9.199300 13.786600 10.885600 3.688700 -1.119500 0.739800 1.070300 0.141600 0.744000 1.057700 0.138100 -6.240300 -2.301300 0.161700 -0.000000 0.000000 -0.000000 -14.343000 -9.952200 0.256800 -17.084400 0.261600 2.403000 -61.552799 8.714400 34.820801 -0.000000 0.000000 -58.805500 5.082600 -3.620900 23.047001 -4.439500 -3.853300 5.135700 -4.122300 9.815500 10.386600 8.366700 -19.503300 -30.029100 -60.767601 0.008400 -6.903000 -71.893501 0.010400 -0.014300 -55.140800 0.006400 -0.012300 -58.150700 0.734000 -8.350900 -60.867401 0.007700 -0.013100 -34.891201 0.002700 -0.008600 -74.700798 0.011700 -8.905000 -77.750298 0.011900 -0.014700 -44.127800 0.004200 -0.010500 -79.504799 0.013100 -6.155000 -81.244698 0.012700 -0.014900 -71.398697 0.010200 -0.014200 15.003000 1.561300 3.630300 46.684299 22.323400 -1.464000 -0.000000 0.000000 70.793098 -13.872000 8.272400 -2.028400 -13.946400 -2.053500 -3.992300 15.613500 2.331800 -13.753500 -23.906700 -11.068500 21.522200 24.039301 2.986200 15.749300 79.057602 0.006400 0.007800 30.575899 0.001100 0.004000 44.938900 0.002500 8.758000 66.231201 0.004700 0.007200 33.690498 0.001300 0.004400 48.488998 0.002900 7.368300 77.028801 0.006100 0.007700 28.874201 0.001000 0.003800 54.346199 0.003600 5.260100 57.645000 0.003700 0.006700 33.917599 0.001300 0.004400 -55.005699 -4.114400 16.480301 116.815498 2.480800 -0.582100 -13.145900 1.510000 -7.927000 9.405000 -0.000000 0.000000 -7.228600 -6.879700 10.659400 42.100498 -1.824700 2.667700 -24.751499 7.249800 -27.951200 -17.276800 0.000000 -0.018600 
0.014776 0.647096 0.102745 -1.869600 9.978100 16.198000 9.144900 4.967300 -2.360100 0.567500 1.430800 -0.129000 0.567600 1.423500 -0.131300 -6.378700 -2.518700 -0.159500 -0.000000 0.000000 -0.000000 -13.148300 -12.690600 0.004000 -16.909700 0.449200 1.578700 -59.853001 10.186900 40.567402 0.000000 -0.000000 -63.354000 3.746800 -2.244800 23.124201 -4.439500 -3.853300 5.135700 -4.104200 9.815400 10.050500 8.287600 -19.566700 -30.368799 -60.437500 0.008300 -6.891700 -71.556801 0.010300 -0.014300 -54.807400 0.006400 -0.012300 -57.821701 0.744700 -8.346700 -60.526600 0.007600 -0.013100 -34.558601 0.002700 -0.008500 -74.372200 0.011700 -8.890500 -77.410698 0.011800 -0.014700 -43.794201 0.004200 -0.010400 -79.174202 -0.022500 -6.155000 -80.912102 0.012700 -0.014800 -71.066200 0.010200 -0.014200 14.391800 1.181200 1.931400 43.093899 18.602400 -3.255400 -0.000000 -0.000000 80.711700 -14.633900 8.437500 -2.648500 -13.946400 -2.053500 -3.992300 15.410100 2.361400 -15.437500 -24.416100 -10.636300 19.781200 25.716600 3.445600 15.614400 80.797699 0.006700 0.007800 32.316002 0.001200 0.004200 46.659199 0.002700 8.731900 68.011299 0.005000 0.007300 35.427898 0.001500 0.004600 50.215099 0.003100 7.346300 78.796799 0.006400 0.007800 30.612801 0.001100 0.004000 56.079201 0.003800 5.244400 59.399799 0.003900 0.006800 35.656700 0.001500 0.004600 -65.739098 -2.961500 8.974100 105.382698 7.014500 -0.378100 -13.183300 3.295600 -9.600500 7.561800 -0.000000 0.000000 -1.925300 -7.845700 6.187900 41.365002 -3.601000 0.496900 -16.324400 6.337100 -21.983601 -17.247499 0.044800 -2.452600 
0.024866 0.663968 0.206386 -1.107600 10.854700 18.836100 7.269000 6.329100 -3.713000 0.381800 1.828900 -0.419400 0.376800 1.827500 -0.420300 -6.541600 -2.746400 -0.514600 -0.000000 0.000000 -0.000000 -11.955000 -15.616100 -0.272000 -16.692400 0.641600 0.730200 -58.780899 11.892800 47.345600 0.000000 0.000000 -68.247803 2.238000 -0.774400 23.267401 -4.439600 -3.853300 5.135600 -4.065300 9.815400 9.178900 8.071100 -19.729200 -31.255100 -59.579899 0.008100 -6.862300 -70.682297 0.010100 -0.014200 -53.941502 0.006200 -0.012100 -56.967201 0.772800 -8.332000 -59.641399 0.007400 -0.013000 -33.694599 0.002500 -0.008300 -73.518799 0.011400 -8.852800 -76.528801 0.011500 -0.014600 -42.927700 0.004000 -0.010200 -78.315498 -0.114900 -6.151900 -80.048401 0.012400 -0.014800 -70.202499 0.009900 -0.014100 13.688100 0.772900 0.099800 39.001701 14.726000 -5.224400 -0.000000 0.000200 91.590698 -15.570800 8.644300 -3.462700 -13.946400 -2.053500 -3.992300 15.218800 2.407500 -19.223200 -25.337099 -9.659800 15.998000 29.412001 4.457700 15.321500 84.623497 0.007200 0.007900 36.141800 0.001500 0.004700 50.441601 0.003100 8.674700 71.925102 0.005500 0.007500 39.248001 0.001800 0.005000 54.010101 0.003500 7.298000 82.683899 0.006900 0.007900 34.435398 0.001400 0.004500 59.889301 0.004300 5.209800 63.257801 0.004400 0.007100 39.480202 0.001800 0.005000 -69.482399 -1.483100 3.209700 85.892403 9.823400 -0.113000 -15.509500 5.727200 -9.577600 5.892800 0.000000 0.000000 6.516300 -8.693800 2.201700 33.053001 -2.599800 -1.902200 -2.380000 3.924100 -16.158899 -10.608300 0.201500 -5.189500 
0.033501 0.679252 0.309012 -0.286800 11.398000 21.200600 5.751000 7.254300 -4.921300 0.229400 2.125700 -0.678300 0.219400 2.129700 -0.678100 -6.668900 -2.940800 -0.821900 -0.000000 0.000000 -0.000000 -10.924400 -18.227400 -0.462100 -16.577000 0.826200 -0.060400 -58.034100 13.284800 52.877899 -0.000000 0.000000 -72.292397 1.056700 0.416800 23.309700 -4.439600 -3.853300 5.135600 -4.031300 9.815300 7.964600 7.742900 -19.951401 -32.503399 -58.381599 0.007800 -6.821100 -69.460297 0.009800 -0.014100 -52.731602 0.005900 -0.012000 -55.773300 0.812000 -8.311400 -58.404499 0.007200 -0.012800 -32.487400 0.002400 -0.008100 -72.326202 0.011100 -8.800100 -75.296402 0.011200 -0.014500 -41.716900 0.003800 -0.010000 -77.115601 -0.244100 -6.143900 -78.841499 0.012100 -0.014700 -68.995598 0.009600 -0.014000 13.065600 0.419900 -1.495100 35.675701 11.804700 -7.271900 0.000000 0.000000 100.467300 -16.215300 8.754800 -4.022200 -13.946400 -2.053500 -3.992300 15.385800 2.386700 -23.167101 -26.000799 -8.656300 12.208500 33.185902 5.491100 15.026700 88.519600 0.007700 0.007900 40.037800 0.001900 0.005100 54.293499 0.003600 8.616400 75.910797 0.006000 0.007700 43.138302 0.002100 0.005400 57.875000 0.004000 7.248700 86.642502 0.007400 0.007900 38.328300 0.001700 0.004900 63.769501 0.004700 5.174400 67.186798 0.004900 0.007300 43.374001 0.002200 0.005400 -65.111702 -0.616000 -0.566300 59.522999 9.964400 0.244100 -17.298800 7.837300 -7.902500 4.354600 -0.000000 0.000000 16.386999 -9.534300 -0.364100 20.921801 0.244800 -3.973200 14.632600 1.202300 -9.944200 2.707900 0.000000 0.000000 
